<svg xmlns="http://www.w3.org/2000/svg" width="32" height="32" viewBox="0 0 32 32" fill="none"><path d="M29.88 6.146 16.86 29.41a.5.5 0 0 1-.876.005L2.7 6.146a.5.5 0 0 1 .53-.74l12.77 2.282a.5.5 0 0 0 .176 0l12.5-2.278a.5.5 0 0 1 .533.736z" fill="url(#a)"/><path d="M22.27 2.077 12.64 3.964a.25.25 0 0 0-.202.23l-.593 10.009a.25.25 0 0 0 .305.259l2.68-.619a.25.25 0 0 1 .3.294l-.797 3.901a.25.25 0 0 0 .316.288l1.656-.503a.25.25 0 0 1 .316.29l-1.266 6.126c-.052.252.283.39.424.174l.094-.145 7.85-15.665a.25.25 0 0 0-.272-.356l-2.758.532a.25.25 0 0 1-.293-.317l1.8-6.244a.25.25 0 0 0-.305-.31z" fill="url(#b)"/><defs><linearGradient id="a" x1="6" y1="3" x2="17" y2="28" gradientUnits="userSpaceOnUse"><stop stop-color="#41D1FF"/><stop offset="1" stop-color="#BD34FE"/></linearGradient><linearGradient id="b" x1="17" y1="4" x2="20" y2="22" gradientUnits="userSpaceOnUse"><stop stop-color="#FFEA83"/><stop offset=".083" stop-color="#FFDD35"/><stop offset="1" stop-color="#FFA800"/></linearGradient></defs></svg>
